PathFileType	4	(X/Y/Z)	Patient5_TMGait_0pt45_1_right_13.trc.trc
DataRate	CameraRate	NumFrames	NumMarkers	Units	OrigDataRate	OrigDataStartFrame	OrigNumFrames
63.348416289593	63.348416289593	5	32	mm	63.348416289593	36	       141
Frame#	Time	R.ASIS			L.ASIS			Chest			R.Shoulder			Neck			L.Shoulder			L.Elbow			L.Wrist			R.Elbow			R.Wrist			L.Thigh.Superior			L.Thigh.Lateral			L.Thigh.Inferior			L.Patella			L.Shank.Superior			L.Shank.Lateral			L.Shank.Inferior			L.Heel			L.Midfoot.Lateral			L.Midfoot.Superior			L.Toe			R.Thigh.Superior			R.Thigh.Lateral			R.Thigh.Inferior			R.Patella			R.Shank.Superior			R.Shank.Lateral			R.Shank.Inferior			R.Heel			R.Midfoot.Lateral			R.Midfoot.Superior			R.Toe			
		X1	Y1	Z1	X2	Y2	Z2	X3	Y3	Z3	X4	Y4	Z4	X5	Y5	Z5	X6	Y6	Z6	X7	Y7	Z7	X8	Y8	Z8	X9	Y9	Z9	X10	Y10	Z10	X11	Y11	Z11	X12	Y12	Z12	X13	Y13	Z13	X14	Y14	Z14	X15	Y15	Z15	X16	Y16	Z16	X17	Y17	Z17	X18	Y18	Z18	X19	Y19	Z19	X20	Y20	Z20	X21	Y21	Z21	X22	Y22	Z22	X23	Y23	Z23	X24	Y24	Z24	X25	Y25	Z25	X26	Y26	Z26	X27	Y27	Z27	X28	Y28	Z28	X29	Y29	Z29	X30	Y30	Z30	X31	Y31	Z31	X32	Y32	Z32	

36	21.932500000000	984.106800903204	974.274540262902	576.333399582440	965.608222538622	958.815812038319	334.138433843058	1039.563287118082	1435.777046203192	469.173036848158	941.710551362783	1493.599635966920	640.103833668347	912.123945602231	1557.796313771803	457.665442498331	970.135637525738	1504.620861080332	274.144339916653	878.495740031767	1195.176626586996	139.957954677777	967.736939486920	917.877568263450	155.561844724160	861.620607083938	1173.643004778138	778.568246887705	1073.000425175805	995.527126660556	687.962634745975	971.231518623096	734.197420044643	313.776896630753	889.343682308034	671.299282926570	271.108879105302	961.397726937009	603.289621532245	321.580086787149	939.380947217444	465.433484300321	310.978567960112	849.694543709708	388.295660491673	335.866192234995	749.341676565703	365.134959342649	265.829152852419	763.927568352178	295.161776617984	348.467381895365	535.046080441816	140.995992366520	353.913538270739	605.568515117690	75.857750484479	301.253882068883	718.492521122656	97.913846538395	337.606308632460	793.798114891914	41.717569761094	355.553850291023	1012.774254393807	744.548460777561	604.867676715471	930.044968254575	660.959614690527	650.381817592590	1019.704959893461	616.103747712343	581.532785175421	1023.293455349327	515.485353601225	608.020637696526	978.459398327839	414.601576974133	564.717481895617	901.135765212197	347.776471841049	642.113157800940	952.355428068758	276.993388584031	558.629724033762	818.223781918339	54.920308464230	518.653741008272	894.095378658968	25.848868571692	594.547409898794	1001.331610061733	88.151336068481	573.814308588965	1104.318308551478	44.174850280913	577.585483039599	
37	21.948285714286	984.349920583140	973.447719534029	578.983664678926	964.668931733534	958.766740255923	337.204444379922	1041.462594209264	1435.091743473289	473.361151789389	944.908435222213	1492.875839098693	645.041326178718	914.128677447630	1557.583707207967	463.000237204552	971.171422687125	1504.831571564407	279.029408479700	878.187142458710	1196.073780689686	144.400276382079	966.987276271951	918.715057072941	159.511818057729	864.596044446558	1173.403070248198	784.211584956107	1076.016461264116	995.790274850263	692.839381319294	977.025729527309	735.520486459278	313.037369402008	897.772688625005	670.763164268949	270.218932947724	973.210419355719	604.680487955714	319.482492900496	955.522408455707	465.199010574648	308.476121076968	862.978978251526	388.348684957049	333.754897020410	762.087243575296	368.477151069313	263.770111020787	773.737385427745	298.893351923533	346.792083340016	539.255656943402	158.184813300555	352.118838526780	604.592309120486	87.537258191116	300.102456425145	718.742840994798	101.262231741482	336.299159476824	788.135035189501	40.792439328954	355.007630560709	1008.477835412340	742.982523748557	605.670626512534	924.115473652008	660.801539652996	651.729621032817	1011.620419811954	614.426672974117	581.474223539735	1013.644007053411	514.362046146438	607.649937994158	968.894727200769	414.532925749191	564.823840010340	892.435695399054	347.367200321901	642.489029930438	943.646284723983	276.832976067566	558.766311558071	810.937577693567	54.460234393742	518.637163284765	886.771482854747	25.634565609910	594.651799808290	993.909508833224	87.970318016376	573.671168494328	1097.057662000204	44.226784266660	577.548660228694	
38	21.964071428571	984.765236937228	972.525146497579	581.127355617664	963.602408177838	958.438957375474	339.986029337876	1043.239435400851	1434.097737030409	477.281619539273	948.063427141426	1491.726764008308	649.777699135465	915.987492201775	1557.039626378033	468.140092124098	971.964681603173	1504.707842502911	283.684913437313	877.786924849314	1196.430855787817	148.857137689964	966.481639147359	919.107996162673	163.218252729622	867.868163802434	1172.743725539261	789.855683849697	1079.182022789760	995.398820067049	697.861524397350	983.212371362889	737.197797758879	312.288278529107	906.941000355036	670.365016472818	269.373500860173	985.883612637465	606.710299381656	317.646204035348	972.802293521386	465.787074315987	306.679399988171	877.444942423639	389.014706635761	332.177270135637	776.479739189345	372.239631545860	261.938249678847	784.854171848793	303.399638344703	345.492433784027	545.506442848657	176.955288726242	350.272337890495	605.169972445090	101.062175015850	298.799247752888	720.072250999442	105.951047830282	335.215179045969	783.127880167795	39.894247392324	354.376617895181	1003.750564756873	741.280315815086	605.452465182073	917.895967373032	660.764818238766	652.811559370207	1002.526366248528	612.678356268041	580.607354578358	1003.010102621241	513.365647756612	606.576973716648	958.265628137439	414.691598857913	564.583158481957	883.244485965365	347.124439354686	642.834184677923	934.396775775287	276.903460870752	558.716562683074	803.652872577091	54.038356075528	518.667456408395	879.454692147343	25.430377679773	594.765120499882	986.495572915194	87.806948249282	573.509033790286	1089.813261276330	44.290360633515	577.491289145984	
39	21.979857142857	985.248510247319	971.508491030488	582.807100854783	962.427857047530	957.911792645156	342.505778299482	1044.904617738363	1432.864460801210	480.867147184620	951.156449123090	1490.198418220103	654.229282498102	917.727142718473	1556.225219430130	473.006815380264	972.555495084447	1504.341780100423	288.042191497067	877.258001131221	1196.319254622917	153.325492974063	966.204991962901	919.123276046411	166.611683245658	871.489664657705	1171.705529572182	795.423955565431	1082.489820245553	994.306362250309	702.982477561224	989.600354731155	739.393669963572	311.834099249501	916.649966794130	670.308979244161	268.786991086640	999.028310082501	609.558558766848	316.379266041800	990.715126780713	467.311439409139	305.764143679820	892.691405978046	390.451542262750	331.275085568882	792.102278944160	376.462678041930	260.464020420492	796.956521854206	308.682050534674	344.650895237614	553.629131725474	196.569325383366	348.428523106648	607.532526028187	115.949444192265	297.395414333682	722.678711733224	112.019410832310	334.453236161238	779.258675902691	39.258258708366	353.747490152378	998.660903748838	739.481224340765	604.672962153551	911.353135769216	660.844124347511	653.773448756336	992.710174334526	610.942600291676	579.400956479276	991.650681494846	512.525192395386	605.233763146056	946.843834139858	415.105002384568	564.232100247521	873.624187614255	347.109702718299	643.248370364537	924.762634218988	277.248533950583	558.648260346151	796.365856308975	53.706901000720	518.770811175180	872.147898103079	25.249343578702	594.892938663112	979.100136332605	87.675048487075	573.380206223145	1082.576740355660	44.377005730726	577.438011830476	
40	21.995642857143	985.665205080601	970.401310328986	584.141060693511	961.171918249555	957.275567405876	344.834209589899	1046.485978217321	1431.481831370634	484.056338605619	954.186562435549	1488.371258413690	658.318285243861	919.390956649672	1555.217788391521	477.533082271905	972.989580483756	1503.851347275023	292.043342187629	876.623797422105	1195.856933679451	157.755581294980	966.160280954305	918.870839604555	169.682771630951	875.465618138074	1170.374280057244	800.828142401315	1085.923160880352	992.554447686609	708.146286832449	995.987005854162	742.225222954973	311.944949700315	926.655092938541	670.786844764841	268.632224189461	1012.219733037498	613.334500810878	315.911422200914	1008.739664924832	469.828153969743	305.770912634162	908.314167350745	392.749645438537	331.100584996175	808.458847654272	381.136539711115	259.447515057637	809.724179206287	314.635097866848	344.302115741256	563.331971229382	215.992757231925	346.653312923600	611.906089710845	131.400792872458	295.972737340498	726.837203064712	119.305022995821	334.095339280553	777.209601040781	39.179991086646	353.251226189135	993.278528488421	737.624167771036	603.828092919494	904.488341239329	661.002660089069	654.756407662345	982.522531312453	609.283058050193	578.307341161453	979.916358001083	511.825242769493	604.031820039600	935.004548180474	415.745319754787	563.990701385758	863.688423085884	347.330035358794	643.796972271487	914.934779583556	277.847387994527	558.706657847587	789.065837083140	53.487482163456	518.955308155358	864.846241188466	25.096018261468	595.034327679795	971.722425079305	87.578381836212	573.317229330316	1075.332923557947	44.491429375058	577.406294065893	
